 <svg
                viewBox="0 0 20 20"
                className="Polaris-Icon__Svg_375hu"
                focusable="false"
                aria-hidden="true"
                width="20px"
                height="20px"
                fill="red"
              >
                <path d="M14 16h-2a1 1 0 0 1-1-1v-2.5a.5.5 0 0 0-.5-.5h-1a.5.5 0 0 0-.5.5v2.5a1 1 0 0 1-1 1h-2a2 2 0 0 1-2-2v-4.257a3 3 0 0 1 .879-2.122l3.707-3.707a2 2 0 0 1 2.828 0l3.707 3.707a3 3 0 0 1 .879 2.122v4.257a2 2 0 0 1-2 2Z"></path>
              </svg>